<svg xmlns="http://www.w3.org/2000/svg" xmlns:xlink="http://www.w3.org/1999/xlink" version="1.1" width="25" height="25" viewBox="0 0 256 256" xml:space="preserve">
<desc>Created with Fabric.js 1.7.22</desc>
<defs>
</defs>
<g transform="translate(128 128) scale(0.72 0.72)" style="">
	<g style="stroke: none; stroke-width: 0; stroke-dasharray: none; stroke-linecap: butt; stroke-linejoin: miter; stroke-miterlimit: 10; fill: none; fill-rule: nonzero; opacity: 1;" transform="translate(-175.05 -175.05000000000004) scale(3.89 3.89)" >
	<path d="M 40.052 48.233 c -13.298 0 -24.117 -10.819 -24.117 -24.117 S 26.754 0 40.052 0 s 24.116 10.819 24.116 24.117 S 53.35 48.233 40.052 48.233 z M 40.052 4 c -11.092 0 -20.117 9.024 -20.117 20.117 s 9.024 20.117 20.117 20.117 c 11.092 0 20.116 -9.024 20.116 -20.117 S 51.144 4 40.052 4 z" style="stroke: none; stroke-width: 1; stroke-dasharray: none; stroke-linecap: butt; stroke-linejoin: miter; stroke-miterlimit: 10; fill: rgb(0,0,0); fill-rule: nonzero; opacity: 1;" transform=" matrix(1 0 0 1 0 0) " stroke-linecap="round" />
	<path d="M 46.468 90 H 8.237 c -1.104 0 -2 -0.896 -2 -2 v -9.953 c 0 -18.646 15.169 -33.814 33.814 -33.814 c 4.744 0 9.333 0.964 13.64 2.864 c 1.011 0.446 1.468 1.627 1.022 2.638 s -1.626 1.467 -2.638 1.022 c -3.794 -1.675 -7.84 -2.524 -12.024 -2.524 c -16.44 0 -29.814 13.375 -29.814 29.814 V 86 h 36.23 c 1.104 0 2 0.896 2 2 S 47.572 90 46.468 90 z" style="stroke: none; stroke-width: 1; stroke-dasharray: none; stroke-linecap: butt; stroke-linejoin: miter; stroke-miterlimit: 10; fill: rgb(0,0,0); fill-rule: nonzero; opacity: 1;" transform=" matrix(1 0 0 1 0 0) " stroke-linecap="round" />
	<path d="M 79.034 90 H 57.375 c -2.607 0 -4.729 -2.121 -4.729 -4.729 V 67.729 c 0 -2.607 2.121 -4.729 4.729 -4.729 h 21.659 c 2.607 0 4.729 2.121 4.729 4.729 v 17.543 C 83.763 87.879 81.642 90 79.034 90 z M 57.375 67 c -0.401 0 -0.729 0.327 -0.729 0.729 v 17.543 c 0 0.401 0.327 0.729 0.729 0.729 h 21.659 c 0.401 0 0.729 -0.327 0.729 -0.729 V 67.729 c 0 -0.401 -0.327 -0.729 -0.729 -0.729 H 57.375 z" style="stroke: none; stroke-width: 1; stroke-dasharray: none; stroke-linecap: butt; stroke-linejoin: miter; stroke-miterlimit: 10; fill: rgb(0,0,0); fill-rule: nonzero; opacity: 1;" transform=" matrix(1 0 0 1 0 0) " stroke-linecap="round" />
	<path d="M 77.433 67 c -1.104 0 -2 -0.896 -2 -2 v -6.347 c 0 -3.566 -2.902 -6.469 -6.469 -6.469 h -1.518 c -3.566 0 -6.469 2.902 -6.469 6.469 V 65 c 0 1.104 -0.896 2 -2 2 s -2 -0.896 -2 -2 v -6.347 c 0 -5.772 4.696 -10.469 10.469 -10.469 h 1.518 c 5.772 0 10.469 4.696 10.469 10.469 V 65 C 79.433 66.104 78.537 67 77.433 67 z" style="stroke: none; stroke-width: 1; stroke-dasharray: none; stroke-linecap: butt; stroke-linejoin: miter; stroke-miterlimit: 10; fill: rgb(0,0,0); fill-rule: nonzero; opacity: 1;" transform=" matrix(1 0 0 1 0 0) " stroke-linecap="round" />
	<path d="M 68.205 79.333 c -1.104 0 -2 -0.896 -2 -2 v -1.852 c 0 -1.104 0.896 -2 2 -2 s 2 0.896 2 2 v 1.852 C 70.205 78.438 69.31 79.333 68.205 79.333 z" style="stroke: none; stroke-width: 1; stroke-dasharray: none; stroke-linecap: butt; stroke-linejoin: miter; stroke-miterlimit: 10; fill: rgb(0,0,0); fill-rule: nonzero; opacity: 1;" transform=" matrix(1 0 0 1 0 0) " stroke-linecap="round" />
</g>
</g>
</svg>